<svg width="52" height="46" viewBox="0 0 52 46" fill="none" xmlns="http://www.w3.org/2000/svg">
<rect y="10" width="52" height="36" rx="6" fill="#D9D9D9"/>
<path d="M0 16C0 12.6863 2.68629 10 6 10H46C49.3137 10 52 12.6863 52 16V20H0V16Z" fill="#5E5E5E"/>
<rect x="6" y="30" width="14" height="4" rx="2" fill="#515151"/>
<rect x="27" y="30" width="17" height="4" rx="2" fill="#515151"/>
<rect x="6" y="36" width="13" height="4" rx="2" fill="#515151"/>
<rect x="32" y="36" width="12" height="4" rx="2" fill="#515151"/>
<rect x="20" y="36" width="11" height="4" rx="2" fill="#515151"/>
<rect x="26" y="6" width="28" height="3" rx="1.5" transform="rotate(90 26 6)" fill="#FF6969"/>
<rect x="38" y="24" width="6" height="4" rx="2" fill="#515151"/>
<rect x="14" y="24" width="8" height="4" rx="2" fill="#515151"/>
<rect x="6" y="24" width="7" height="4" rx="2" fill="#515151"/>
<path d="M7.92186 25.2682C7.44211 24.8684 7.44211 24.1316 7.92187 23.7318L9.35982 22.5335C9.73066 22.2244 10.2693 22.2244 10.6402 22.5335L12.0781 23.7318C12.5579 24.1316 12.5579 24.8684 12.0781 25.2682L10.6402 26.4665C10.2693 26.7756 9.73066 26.7756 9.35982 26.4665L7.92186 25.2682Z" fill="#FF6969"/>
<path d="M25.9812 19.3674C25.1875 20.2422 23.8125 20.2422 23.0188 19.3674L13.2443 8.59386C12.0783 7.30865 12.9902 5.25 14.7256 5.25L34.2744 5.25C36.0098 5.25 36.9217 7.30865 35.7556 8.59386L25.9812 19.3674Z" fill="#FF6969"/>
<path d="M35.955 24.2523C37.6138 24.827 37.6138 27.173 35.955 27.7477C34.7534 28.1639 33.5 27.2716 33.5 26C33.5 24.7284 34.7534 23.8361 35.955 24.2523Z" fill="#FF6969"/>
</svg>
