<svg width="1400" height="728" viewBox="0 0 1400 728" fill="none" xmlns="http://www.w3.org/2000/svg">
<rect width="44.4194" height="9.25404" transform="matrix(-0.616856 -0.787076 -0.787076 0.616856 131.571 91.5576)" fill="#D9D9D9"/>
<rect width="44.4194" height="9.25404" transform="matrix(0.787076 -0.616856 -0.616856 -0.787076 99.6029 94.2731)" fill="#D9D9D9"/>
<rect width="44.4194" height="9.25404" transform="matrix(-4.37114e-08 -1 -1 4.37114e-08 1381.84 44.4194)" fill="#D9D9D9"/>
<rect width="44.4194" height="9.25404" transform="matrix(1 0 0 -1 1355 26.8367)" fill="#D9D9D9"/>
<rect width="44.4194" height="9.25404" transform="matrix(-0.262646 -0.964892 -0.964892 0.262646 896.099 156.156)" fill="#D9D9D9"/>
<rect width="44.4194" height="9.25404" transform="matrix(0.964892 -0.262646 -0.262646 -0.964892 865.586 146.239)" fill="#D9D9D9"/>
<rect width="44.4194" height="9.25404" transform="matrix(1 0 0 -1 -28 261.369)" fill="#D9D9D9"/>
<rect width="44.4194" height="9.25404" transform="matrix(0.445508 -0.895278 -0.895278 -0.445508 1156.48 719.346)" fill="#D9D9D9"/>
<rect width="44.4194" height="9.25404" transform="matrix(0.895278 0.445508 0.445508 -0.895278 1140.29 691.648)" fill="#D9D9D9"/>
<rect width="44.4194" height="9.25404" transform="matrix(-0.514107 -0.857726 -0.857726 0.514107 737.82 326.091)" fill="#D9D9D9"/>
<rect width="44.4194" height="9.25404" transform="matrix(0.857726 -0.514107 -0.514107 -0.857726 705.762 324.807)" fill="#D9D9D9"/>
<rect width="25.7268" height="5.35975" transform="matrix(0.847857 -0.530225 -0.530225 -0.847857 11.7052 618.558)" fill="#D9D9D9"/>
<rect width="25.7268" height="5.35975" transform="matrix(0.530225 0.847857 0.847857 -0.530225 12.098 599.98)" fill="#D9D9D9"/>
<rect width="25.7268" height="5.35975" transform="matrix(0.929904 0.367802 0.367802 -0.929904 484.718 141.639)" fill="#D9D9D9"/>
<rect width="25.7268" height="5.35975" transform="matrix(-0.367802 0.929904 0.929904 0.367802 499.905 130.931)" fill="#D9D9D9"/>
<rect width="44.4194" height="9.25404" transform="matrix(-0.904954 -0.425509 -0.425509 0.904954 1243.3 232.329)" fill="#D9D9D9"/>
<rect width="44.4194" height="9.25404" transform="matrix(0.425509 -0.904954 -0.904954 -0.425509 1215.97 249.133)" fill="#D9D9D9"/>
</svg>
