<svg width="35" height="35" viewBox="0 0 35 35" fill="none" xmlns="http://www.w3.org/2000/svg">
<path d="M0 11C0 4.92487 4.92487 0 11 0H24C30.0751 0 35 4.92487 35 11V24C35 30.0751 30.0751 35 24 35H0V11Z" fill="#D9D9D9"/>
<path d="M16.5489 5.92705C16.8483 5.00574 18.1517 5.00574 18.4511 5.92705L20.5309 12.3283C20.6648 12.7403 21.0488 13.0193 21.482 13.0193L28.2126 13.0193C29.1814 13.0193 29.5841 14.2589 28.8004 14.8283L23.3552 18.7844C23.0047 19.0391 22.8581 19.4905 22.9919 19.9025L25.0718 26.3037C25.3712 27.225 24.3167 27.9911 23.533 27.4217L18.0878 23.4656C17.7373 23.2109 17.2627 23.2109 16.9122 23.4656L11.467 27.4217C10.6833 27.9911 9.62882 27.225 9.92817 26.3037L12.0081 19.9025C12.1419 19.4905 11.9953 19.0391 11.6448 18.7844L6.19958 14.8283C5.41586 14.2589 5.81864 13.0193 6.78736 13.0193L13.518 13.0193C13.9512 13.0193 14.3352 12.7403 14.4691 12.3283L16.5489 5.92705Z" fill="#EA6060"/>
</svg>
