<?xml version="1.0" encoding="utf-8"?>
<!-- Generator: Adobe Illustrator 27.9.0, SVG Export Plug-In . SVG Version: 6.00 Build 0)  -->
<svg version="1.1" xmlns="http://www.w3.org/2000/svg" xmlns:xlink="http://www.w3.org/1999/xlink" x="0px" y="0px"
	 viewBox="0 0 1080 1080" style="enable-background:new 0 0 1080 1080;" xml:space="preserve">
<style type="text/css">
	.st0{display:none;}
	.st1{display:inline;fill:#3C3C3B;}
	.st2{display:inline;}
	.st3{fill:#969696;}
	.st4{fill:#353535;}
	.st5{fill:#C6C6C6;}
	.st6{display:inline;fill:#B2B2B2;}
	.st7{display:inline;fill:#C6C6C6;}
	.st8{fill:#575756;}
	.st9{display:inline;fill:#706F6F;}
	.st10{fill:#B2B2B2;}
	.st11{fill:#878787;}
	.st12{fill:#9B0E1F;}
	.st13{fill:#BE1622;}
	.st14{display:inline;fill:#575756;}
	.st15{fill:#3C3C3B;}
	.st16{fill:#CECECE;}
	.st17{fill:#B7B7B7;}
</style>
<g id="Camada_1" class="st0">
	<rect x="-1.01" y="-3.92" class="st1" width="1089.61" height="1089.61"/>
	<g id="legs" class="st2">
		<path class="st3" d="M351.27,836.16h-6.8c-11.1,0-20.1-9-20.1-20.1v-94.8c0-11.1,9-20.1,20.1-20.1h6.8c11.1,0,20.1,9,20.1,20.1
			v94.8C371.37,827.16,362.37,836.16,351.27,836.16z"/>
		<rect x="337.77" y="716.7" class="st4" width="33.6" height="55.78"/>
		<path class="st5" d="M348.29,819.41h-6.8c-11.1,0-20.1-9-20.1-20.1v-63.74c0-11.1,9-20.1,20.1-20.1h6.8c11.1,0,20.1,9,20.1,20.1
			v63.74C368.39,810.41,359.39,819.41,348.29,819.41z"/>
		<rect x="321.39" y="716.7" class="st4" width="47" height="55.78"/>
	</g>
	<rect x="323.52" y="616.48" class="st6" width="42.26" height="28.17"/>
	<circle id="HEAD" class="st7" cx="344.65" cy="549.96" r="77.48"/>
	<g id="HAIR" class="st2">
		<path class="st8" d="M392.52,556.61c-2.24-10.94-4.71-14.85-2.61-16.83c2.4-2.25,9-0.33,12.65,3.52
			c5.92,6.25,3.02,16.47,1.96,20.22c-1.7,6-5.69,13.33-8.22,12.78C394.07,575.82,395.2,569.69,392.52,556.61z"/>
		<path class="st8" d="M377.14,498.96l-21.71-56.61c2.85-1.78,5.89-3.01,9.07-3.68c21.92-4.6,45.67,18.83,52.61,51.91
			c4.41,21.03,1.22,42.12-8.4,55.54L377.14,498.96z"/>
		<path class="st8" d="M271.66,511.16l65.08,6.24c-1.28,26.3-17.11,48.93-40.48,57.9c-33.11,12.7-71.45-5.81-84.95-41
			c-7.4-19.29-6.23-40.73,3.19-58.31L271.66,511.16z"/>
		<path class="st8" d="M344.89,550.41l-73.66,23.71c-12.82-39.57,7.3-82.58,45.46-97.22c36.62-14.05,78.61,2.35,96.87,37.83
			L344.89,550.41z"/>
		<path class="st8" d="M345.95,468.12l-41.18,47c10.08,10.59,114.04,6.04,113.87-14.51c-0.07-8.88-10.78-42.39-15.69-54.35
			c-7.85-19.11-22.15-34.62-40.12-41.7L345.95,468.12z"/>
	</g>
	<path id="tronco" class="st9" d="M363.14,745.87H320.1c-10.95,0-19.83-8.88-19.83-19.83V660.3c0-10.95,8.88-19.83,19.83-19.83
		h43.04c10.95,0,19.83,8.88,19.83,19.83v65.74C382.97,736.99,374.09,745.87,363.14,745.87z"/>
	<path class="st1" d="M382.91,601.06c2.82-2.08,7.06-3.4,11.81-3.4c8.48,0,15.35,4.21,15.35,9.41s-6.87,9.41-15.35,9.41
		c-8.48,0-15.35-4.21-15.35-9.41C379.37,604.79,380.7,602.69,382.91,601.06"/>
	<g id="braco" class="st2">
		<path class="st10" d="M353.43,762.6h-14.97c-2.03,0-3.67-1.64-3.67-3.67v-9.39c0-2.03,1.64-3.67,3.67-3.67h14.97
			c2.03,0,3.67,1.64,3.67,3.67v9.39C357.1,760.96,355.46,762.6,353.43,762.6z"/>
		<path class="st11" d="M353.97,751.48h-16.04c-5.51,0-9.98-4.47-9.98-9.98v-79.34c0-5.51,4.47-9.98,9.98-9.98h16.04
			c5.51,0,9.98,4.47,9.98,9.98v79.34C363.95,747.01,359.48,751.48,353.97,751.48z"/>
	</g>
	<g id="TENIOS_00000103245037337991202900000004541823991900709051_" class="st2">
		<path class="st12" d="M376.38,875.78h-34.65c-8.51,0-15.41-6.9-15.41-15.41v-50.3c0-8.51,6.9-15.41,15.41-15.41h34.65
			c8.51,0,15.41,6.9,15.41,15.41v50.3C391.79,868.88,384.89,875.78,376.38,875.78z"/>
		<path class="st12" d="M395.05,875.68H357.6c-8.51,0-15.41-6.9-15.41-15.41v-8.51c0-8.51,6.9-15.41,15.41-15.41h37.46
			c8.51,0,15.41,6.9,15.41,15.41v8.51C410.47,868.78,403.57,875.68,395.05,875.68z"/>
	</g>
	<g id="TENIOS" class="st2">
		<path class="st13" d="M362.22,875.78h-34.65c-8.51,0-15.41-6.9-15.41-15.41v-50.3c0-8.51,6.9-15.41,15.41-15.41h34.65
			c8.51,0,15.41,6.9,15.41,15.41v50.3C377.63,868.88,370.73,875.78,362.22,875.78z"/>
		<path class="st13" d="M380.89,875.68h-37.46c-8.51,0-15.41-6.9-15.41-15.41v-8.51c0-8.51,6.9-15.41,15.41-15.41h37.46
			c8.51,0,15.41,6.9,15.41,15.41v8.51C396.3,868.78,389.4,875.68,380.89,875.68z"/>
	</g>
	<path class="st14" d="M362.82,404.57"/>
</g>
<g id="Camada_2">
	<g>
		<circle class="st8" cx="513.84" cy="511.92" r="180.96"/>
		<path class="st15" d="M701.67,493.68c18.74,19.1-58.49,187.26-178.89,191.15c-45.43,1.47-104.28-20.21-138.86-61.02
			c-4.33-5.11-3.93-5.39-19.11-27.7c-55.52-81.65-75.61-99.61-71.06-105.74c10-13.46,100.16,82.01,217.94,79.61
			C623.56,567.69,686.89,478.61,701.67,493.68z"/>
		<path class="st16" d="M843.16,523.91c0.88,39.13-167.87,90.12-335.9,92.69c-162.34,2.48-348.75-39.86-352.25-92.69
			c-1.67-25.2,38.07-56.12,69.49-66.48c32-10.56,110.22-18.04,115.95-18.99c2.71-0.45,3.79-0.72,3.79-0.72
			c3.46-0.87,4.58-1.74,5.08-1.26c0.67,0.65-0.74,2.86-2.92,7.39c-1.02,2.13-1.91,4.33-2.89,6.49c-1.4,3.1-3.14,7.79-4.45,14.49
			c0,0,0,0,0,0c-0.13,0.99-0.33,2.61-0.45,4.62c0,0-1.1,17.83,7.78,36.07c8.85,18.18,72.62,43.28,165.18,43.28
			c0,0,54.26-0.79,149.31-37.51c5.69-2.2,16.45-6.67,22.84-17.31c1.09-1.82,8.46-14.5,4.99-28.68c-2.01-8.23-6.51-12.19-4.59-14.71
			c1.71-2.24,6.48-0.7,19.8,2.03c11.84,2.43,15.45,2.73,18.81,3.49C737.42,459.45,842.47,493.25,843.16,523.91z"/>
		<path class="st15" d="M513.41,351.15c1.06,3.97-25.54,8.82-53.75,33.18c-14.39,12.43-14.01,16.82-25.16,23.47
			c-22.93,13.68-55.17,13.36-58.52,4.66c-4.47-11.6,40.2-43.91,86.56-56.98C488.16,348.25,512.42,347.43,513.41,351.15z"/>
		<path class="st15" d="M545.13,350.97c-0.33,1.66-4.12,2.38-6.37,2.46c-4.76,0.17-6.03-2.41-11.54-3.13
			c-4.99-0.65-7.76,0.98-8.05,0.24c-0.47-1.18,5.97-6.83,13.57-6.61C539.27,344.13,545.6,348.63,545.13,350.97z"/>
		<path class="st17" d="M422.69,378.67c-0.34-0.61-8.3,3.19-9.2,3.62c-4.89,2.34-11.1,5.66-19.2,11.35
			c-11.11,7.81-11.99,10.39-11.82,12.25c0.14,1.47,1.02,3.22,2.4,3.68c2.35,0.78,5.11-2.48,10.54-8.07c0,0,5.26-5.41,10.02-9.84
			C414.72,383.01,423.03,379.29,422.69,378.67z"/>
	</g>
</g>
</svg>
