<svg width="455" height="50" viewBox="0 0 455 50" fill="none" xmlns="http://www.w3.org/2000/svg">
<path d="M417.374 12.3744C424.209 5.54019 435.289 5.54019 442.123 12.3744L454.497 24.7487L442.123 37.1231C435.289 43.9573 424.209 43.9573 417.374 37.1231L405 24.7487L417.374 12.3744Z" fill="#D9D9D9"/>
<path d="M413.669 16.0797C420.503 9.24552 431.584 9.24552 438.418 16.0797L450.792 28.4541L445.828 33.4178C438.994 40.252 427.914 40.252 421.08 33.4178L408.705 21.0434L413.669 16.0797Z" fill="#878787"/>
<path d="M409.964 19.785C416.798 12.9508 427.878 12.9508 434.712 19.785L447.087 32.1594L442.123 37.1231C435.289 43.9573 424.209 43.9573 417.374 37.1231L405 24.7487L409.964 19.785Z" fill="#C2C2C2"/>
<rect y="6" width="223" height="38" fill="#D9D9D9"/>
<rect y="17" width="223" height="27" fill="#C2C2C2"/>
<rect x="233" y="6" width="38" height="38" fill="#D9D9D9"/>
<rect x="233" y="17" width="38" height="27" fill="#C2C2C2"/>
<rect x="281" y="6" width="18" height="38" fill="#D9D9D9"/>
<rect x="309" y="6" width="18" height="38" fill="#D9D9D9"/>
<rect x="337" y="6" width="12" height="38" fill="#D9D9D9"/>
<rect x="359" y="6" width="12" height="38" fill="#D9D9D9"/>
<rect x="381" y="6" width="12" height="38" fill="#D9D9D9"/>
</svg>
