<svg width="451" height="495" viewBox="0 0 451 495" fill="none" xmlns="http://www.w3.org/2000/svg">
<path d="M184.875 121.729C98.2774 270.483 -157.052 488.265 244.286 461.976C244.286 461.976 377.663 493.362 399.474 343.631C421.285 193.901 459.488 235.322 441.777 115.265C424.067 -4.79289 271.473 -27.0245 184.875 121.729Z" fill="#939393"/>
<path d="M416.5 234.5C325 109.5 270.5 -201 48.0457 203.967C48.0457 203.967 -65.0001 328 67.4998 389C200 450 136 477 264 491C392 505 508 359.5 416.5 234.5Z" fill="#D9D9D9"/>
<rect x="70" y="84.0001" width="336" height="375" rx="168" fill="#702D2D"/>
<rect x="70" y="84.0001" width="336" height="375" rx="168" fill="#F86565"/>
<rect x="70" y="84.0001" width="336" height="375" rx="168" fill="url(#paint0_linear_32_149)" fill-opacity="0.2"/>
<rect x="260" y="141" width="78" height="193" rx="39" fill="#391F1F"/>
<rect x="299" y="178" width="30" height="75" rx="15" fill="#C9C9C9"/>
<path d="M327 241C327 246.616 318.48 251.5 312.588 251.5C309.538 251.5 304.289 248.129 302 243.5C299.868 239.188 300.568 233.785 301.079 229C306 227.5 301.5 239 308.5 239C323.5 241 314.06 216.613 321.015 217C330 217.5 328 235 327 241Z" fill="#D9D9D9"/>
<path d="M383 378.5C405.484 385 385.361 410.159 368.516 410.159C351.671 410.159 318.516 410.159 305.016 403.159C297.016 393.159 308.671 371.159 325.516 371.159C342.361 371.159 367 373.875 383 378.5Z" fill="#D9D9D9"/>
<defs>
<linearGradient id="paint0_linear_32_149" x1="307.5" y1="225" x2="178.5" y2="440" gradientUnits="userSpaceOnUse">
<stop/>
<stop offset="1" stop-opacity="0"/>
</linearGradient>
</defs>
</svg>
