<svg width="824" height="319" viewBox="0 0 824 319" fill="none" xmlns="http://www.w3.org/2000/svg">
<g clip-path="url(#clip0_157_854)">
<mask id="mask0_157_854" style="mask-type:alpha" maskUnits="userSpaceOnUse" x="-129" y="-171" width="1065" height="667">
<g opacity="0.5">
<path d="M4.88256 257.729H4.01501V266.019H4.88256V257.729Z" fill="white"/>
<path d="M4.88256 307.458H4.01501V315.749H4.88256V307.458Z" fill="white"/>
<path d="M4.88256 241.148H4.01501V249.438H4.88256V241.148Z" fill="white"/>
<path d="M4.88256 274.297H4.01501V282.587H4.88256V274.297Z" fill="white"/>
<path d="M4.88256 290.878H4.01501V299.168H4.88256V290.878Z" fill="white"/>
<path d="M137.897 307.458H137.03V315.749H137.897V307.458Z" fill="white"/>
<path d="M137.897 257.729H137.03V266.019H137.897V257.729Z" fill="white"/>
<path d="M137.897 241.148H137.03V249.438H137.897V241.148Z" fill="white"/>
<path d="M137.897 274.297H137.03V282.587H137.897V274.297Z" fill="white"/>
<path d="M137.897 290.878H137.03V299.168H137.897V290.878Z" fill="white"/>
<path d="M270.912 307.458H270.045V315.749H270.912V307.458Z" fill="white"/>
<path d="M270.912 290.878H270.045V299.168H270.912V290.878Z" fill="white"/>
<path d="M270.912 241.148H270.045V249.438H270.912V241.148Z" fill="white"/>
<path d="M270.912 257.729H270.045V266.019H270.912V257.729Z" fill="white"/>
<path d="M270.912 274.297H270.045V282.587H270.912V274.297Z" fill="white"/>
<path d="M403.94 257.729H403.073V266.019H403.94V257.729Z" fill="white"/>
<path d="M403.94 241.148H403.073V249.438H403.94V241.148Z" fill="white"/>
<path d="M403.94 290.878H403.073V299.168H403.94V290.878Z" fill="white"/>
<path d="M403.94 274.297H403.073V282.587H403.94V274.297Z" fill="white"/>
<path d="M403.94 307.458H403.073V315.749H403.94V307.458Z" fill="white"/>
<path d="M536.955 241.148H536.088V249.438H536.955V241.148Z" fill="white"/>
<path d="M536.955 257.729H536.088V266.019H536.955V257.729Z" fill="white"/>
<path d="M536.955 274.297H536.088V282.587H536.955V274.297Z" fill="white"/>
<path d="M536.955 290.878H536.088V299.168H536.955V290.878Z" fill="white"/>
<path d="M536.955 307.458H536.088V315.749H536.955V307.458Z" fill="white"/>
<path d="M669.97 241.148H669.103V249.438H669.97V241.148Z" fill="white"/>
<path d="M669.97 274.297H669.103V282.587H669.97V274.297Z" fill="white"/>
<path d="M669.97 307.458H669.103V315.749H669.97V307.458Z" fill="white"/>
<path d="M669.97 290.878H669.103V299.168H669.97V290.878Z" fill="white"/>
<path d="M669.97 257.729H669.103V266.019H669.97V257.729Z" fill="white"/>
<path d="M802.985 307.458H802.117V315.749H802.985V307.458Z" fill="white"/>
<path d="M802.985 257.729H802.117V266.019H802.985V257.729Z" fill="white"/>
<path d="M802.985 274.297H802.117V282.587H802.985V274.297Z" fill="white"/>
<path d="M802.985 241.148H802.117V249.438H802.985V241.148Z" fill="white"/>
<path d="M802.985 290.878H802.117V299.168H802.985V290.878Z" fill="white"/>
<path d="M33.639 228.1V228.878V228.967H41.9317V228.878V228.1V228.011H33.639V228.1Z" fill="white"/>
<path d="M116.566 228.1V228.878V228.967H124.859V228.878V228.1V228.011H116.566V228.1Z" fill="white"/>
<path d="M17.0537 228.1V228.878V228.967H25.3464V228.878V228.1V228.011H17.0537V228.1Z" fill="white"/>
<path d="M50.2245 228.1V228.878V228.967H58.5172V228.878V228.1V228.011H50.2245V228.1Z" fill="white"/>
<path d="M66.8098 228.1V228.878V228.967H75.1025V228.878V228.1V228.011H66.8098V228.1Z" fill="white"/>
<path d="M99.9807 228.1V228.878V228.967H108.273V228.878V228.1V228.011H99.9807V228.1Z" fill="white"/>
<path d="M83.3953 228.1V228.878V228.967H91.688V228.878V228.1V228.011H83.3953V228.1Z" fill="white"/>
<path d="M4.88245 224.133H4.01491V228.011H0.136475V228.1V228.878V228.967H4.01491V232.858H4.88245V228.967H8.76089V228.878V228.1V228.011H4.88245V224.133Z" fill="white"/>
<path d="M4.88256 124.649H4.01501V132.939H4.88256V124.649Z" fill="white"/>
<path d="M4.88256 190.972H4.01501V199.262H4.88256V190.972Z" fill="white"/>
<path d="M4.88256 174.391H4.01501V182.681H4.88256V174.391Z" fill="white"/>
<path d="M4.88256 207.553H4.01501V215.843H4.88256V207.553Z" fill="white"/>
<path d="M4.88256 157.81H4.01501V166.101H4.88256V157.81Z" fill="white"/>
<path d="M4.88256 108.068H4.01501V116.358H4.88256V108.068Z" fill="white"/>
<path d="M4.88256 141.229H4.01501V149.52H4.88256V141.229Z" fill="white"/>
<path d="M249.581 228.1V228.878V228.967H257.874V228.878V228.1V228.011H249.581V228.1Z" fill="white"/>
<path d="M166.654 228.1V228.878V228.967H174.947V228.878V228.1V228.011H166.654V228.1Z" fill="white"/>
<path d="M183.239 228.1V228.878V228.967H191.532V228.878V228.1V228.011H183.239V228.1Z" fill="white"/>
<path d="M232.996 228.1V228.878V228.967H241.288V228.878V228.1V228.011H232.996V228.1Z" fill="white"/>
<path d="M150.081 228.1V228.878V228.967H158.361V228.878V228.1V228.011H150.081V228.1Z" fill="white"/>
<path d="M216.41 228.1V228.878V228.967H224.703V228.878V228.1V228.011H216.41V228.1Z" fill="white"/>
<path d="M199.825 228.1V228.878V228.967H208.118V228.878V228.1V228.011H199.825V228.1Z" fill="white"/>
<path d="M137.897 224.133H137.03V228.011H133.151V228.1V228.878V228.967H137.03V232.858H137.897V228.967H141.789V228.878V228.1V228.011H137.897V224.133Z" fill="white"/>
<path d="M137.897 174.391H137.03V182.681H137.897V174.391Z" fill="white"/>
<path d="M137.897 190.972H137.03V199.262H137.897V190.972Z" fill="white"/>
<path d="M137.897 108.068H137.03V116.358H137.897V108.068Z" fill="white"/>
<path d="M137.897 124.649H137.03V132.939H137.897V124.649Z" fill="white"/>
<path d="M137.897 141.229H137.03V149.52H137.897V141.229Z" fill="white"/>
<path d="M137.897 157.81H137.03V166.101H137.897V157.81Z" fill="white"/>
<path d="M137.897 207.553H137.03V215.843H137.897V207.553Z" fill="white"/>
<path d="M332.84 228.1V228.878V228.967H341.133V228.878V228.1V228.011H332.84V228.1Z" fill="white"/>
<path d="M349.425 228.1V228.878V228.967H357.718V228.878V228.1V228.011H349.425V228.1Z" fill="white"/>
<path d="M283.096 228.1V228.878V228.967H291.389V228.878V228.1V228.011H283.096V228.1Z" fill="white"/>
<path d="M316.254 228.1V228.878V228.967H324.547V228.878V228.1V228.011H316.254V228.1Z" fill="white"/>
<path d="M382.596 228.1V228.878V228.967H390.889V228.878V228.1V228.011H382.596V228.1Z" fill="white"/>
<path d="M366.011 228.1V228.878V228.967H374.303V228.878V228.1V228.011H366.011V228.1Z" fill="white"/>
<path d="M299.682 228.1V228.878V228.967H307.962V228.878V228.1V228.011H299.682V228.1Z" fill="white"/>
<path d="M270.912 224.133H270.045V228.011H266.167V228.1V228.878V228.967H270.045V232.858H270.912V228.967H274.804V228.878V228.1V228.011H270.912V224.133Z" fill="white"/>
<path d="M270.912 174.391H270.045V182.681H270.912V174.391Z" fill="white"/>
<path d="M270.912 190.972H270.045V199.262H270.912V190.972Z" fill="white"/>
<path d="M270.912 141.229H270.045V149.52H270.912V141.229Z" fill="white"/>
<path d="M270.912 108.068H270.045V116.358H270.912V108.068Z" fill="white"/>
<path d="M270.912 124.649H270.045V132.939H270.912V124.649Z" fill="white"/>
<path d="M270.912 207.553H270.045V215.843H270.912V207.553Z" fill="white"/>
<path d="M270.912 157.81H270.045V166.101H270.912V157.81Z" fill="white"/>
<path d="M416.111 228.1V228.878V228.967H424.404V228.878V228.1V228.011H416.111V228.1Z" fill="white"/>
<path d="M432.697 228.1V228.878V228.967H440.989V228.878V228.1V228.011H432.697V228.1Z" fill="white"/>
<path d="M482.44 228.1V228.878V228.967H490.733V228.878V228.1V228.011H482.44V228.1Z" fill="white"/>
<path d="M499.026 228.1V228.878V228.967H507.318V228.878V228.1V228.011H499.026V228.1Z" fill="white"/>
<path d="M515.611 228.1V228.878V228.967H523.904V228.878V228.1V228.011H515.611V228.1Z" fill="white"/>
<path d="M465.867 228.1V228.878V228.967H474.16V228.878V228.1V228.011H465.867V228.1Z" fill="white"/>
<path d="M449.282 228.1V228.878V228.967H457.575V228.878V228.1V228.011H449.282V228.1Z" fill="white"/>
<path d="M403.927 224.133H403.073V228.011H399.181V228.1V228.878V228.967H403.073V232.858H403.927V228.967H407.819V228.878V228.1V228.011H403.927V224.133Z" fill="white"/>
<path d="M403.94 141.229H403.073V149.52H403.94V141.229Z" fill="white"/>
<path d="M403.94 190.972H403.073V199.262H403.94V190.972Z" fill="white"/>
<path d="M403.94 174.391H403.073V182.681H403.94V174.391Z" fill="white"/>
<path d="M403.94 124.649H403.073V132.939H403.94V124.649Z" fill="white"/>
<path d="M403.94 207.553H403.073V215.843H403.94V207.553Z" fill="white"/>
<path d="M403.94 157.81H403.073V166.101H403.94V157.81Z" fill="white"/>
<path d="M403.94 108.068H403.073V116.358H403.94V108.068Z" fill="white"/>
<path d="M648.626 228.1V228.878V228.967H656.919V228.878V228.1V228.011H648.626V228.1Z" fill="white"/>
<path d="M549.126 228.1V228.878V228.967H557.419V228.878V228.1V228.011H549.126V228.1Z" fill="white"/>
<path d="M632.041 228.1V228.878V228.967H640.333V228.878V228.1V228.011H632.041V228.1Z" fill="white"/>
<path d="M565.712 228.1V228.878V228.967H574.004V228.878V228.1V228.011H565.712V228.1Z" fill="white"/>
<path d="M615.468 228.1V228.878V228.967H623.761V228.878V228.1V228.011H615.468V228.1Z" fill="white"/>
<path d="M598.883 228.1V228.878V228.967H607.175V228.878V228.1V228.011H598.883V228.1Z" fill="white"/>
<path d="M582.297 228.1V228.878V228.967H590.59V228.878V228.1V228.011H582.297V228.1Z" fill="white"/>
<path d="M536.942 224.133H536.087V228.011H532.196V228.1V228.878V228.967H536.087V232.858H536.942V228.967H540.833V228.878V228.1V228.011H536.942V224.133Z" fill="white"/>
<path d="M536.955 124.649H536.088V132.939H536.955V124.649Z" fill="white"/>
<path d="M536.955 174.391H536.088V182.681H536.955V174.391Z" fill="white"/>
<path d="M536.955 157.81H536.088V166.101H536.955V157.81Z" fill="white"/>
<path d="M536.955 190.972H536.088V199.262H536.955V190.972Z" fill="white"/>
<path d="M536.955 207.553H536.088V215.843H536.955V207.553Z" fill="white"/>
<path d="M536.955 141.229H536.088V149.52H536.955V141.229Z" fill="white"/>
<path d="M536.955 108.068H536.088V116.358H536.955V108.068Z" fill="white"/>
<path d="M698.727 228.1V228.878V228.967H707.019V228.878V228.1V228.011H698.727V228.1Z" fill="white"/>
<path d="M781.641 228.1V228.878V228.967H789.934V228.878V228.1V228.011H781.641V228.1Z" fill="white"/>
<path d="M731.897 228.1V228.878V228.967H740.19V228.878V228.1V228.011H731.897V228.1Z" fill="white"/>
<path d="M765.068 228.1V228.878V228.967H773.361V228.878V228.1V228.011H765.068V228.1Z" fill="white"/>
<path d="M682.141 228.1V228.878V228.967H690.434V228.878V228.1V228.011H682.141V228.1Z" fill="white"/>
<path d="M748.483 228.1V228.878V228.967H756.775V228.878V228.1V228.011H748.483V228.1Z" fill="white"/>
<path d="M715.312 228.1V228.878V228.967H723.605V228.878V228.1V228.011H715.312V228.1Z" fill="white"/>
<path d="M669.97 224.133H669.103V228.011H665.211V228.1V228.878V228.967H669.103V232.858H669.97V228.967H673.849V228.878V228.1V228.011H669.97V224.133Z" fill="white"/>
<path d="M669.97 174.391H669.103V182.681H669.97V174.391Z" fill="white"/>
<path d="M669.97 157.81H669.103V166.101H669.97V157.81Z" fill="white"/>
<path d="M669.97 108.068H669.103V116.358H669.97V108.068Z" fill="white"/>
<path d="M669.97 207.553H669.103V215.843H669.97V207.553Z" fill="white"/>
<path d="M669.97 124.649H669.103V132.939H669.97V124.649Z" fill="white"/>
<path d="M669.97 190.972H669.103V199.262H669.97V190.972Z" fill="white"/>
<path d="M669.97 141.229H669.103V149.52H669.97V141.229Z" fill="white"/>
<path d="M815.156 228.1V228.878V228.967H823.449V228.878V228.1V228.011H815.156V228.1Z" fill="white"/>
<path d="M802.985 224.133H802.117V228.011H798.226V228.1V228.878V228.967H802.117V232.858H802.985V228.967H806.863V228.878V228.1V228.011H802.985V224.133Z" fill="white"/>
<path d="M802.985 157.81H802.117V166.101H802.985V157.81Z" fill="white"/>
<path d="M802.985 141.229H802.117V149.52H802.985V141.229Z" fill="white"/>
<path d="M802.985 124.649H802.117V132.939H802.985V124.649Z" fill="white"/>
<path d="M802.985 190.972H802.117V199.262H802.985V190.972Z" fill="white"/>
<path d="M802.985 207.553H802.117V215.843H802.985V207.553Z" fill="white"/>
<path d="M802.985 174.391H802.117V182.681H802.985V174.391Z" fill="white"/>
<path d="M802.985 108.068H802.117V116.358H802.985V108.068Z" fill="white"/>
<path d="M99.9807 95.0327V95.8235V95.9H108.273V95.8235V95.0327V94.9562H99.9807V95.0327Z" fill="white"/>
<path d="M66.8098 95.0327V95.8235V95.9H75.1025V95.8235V95.0327V94.9562H66.8098V95.0327Z" fill="white"/>
<path d="M33.639 95.0327V95.8235V95.9H41.9317V95.8235V95.0327V94.9562H33.639V95.0327Z" fill="white"/>
<path d="M50.2245 95.0327V95.8235V95.9H58.5172V95.8235V95.0327V94.9562H50.2245V95.0327Z" fill="white"/>
<path d="M17.0537 95.0327V95.8235V95.9H25.3464V95.8235V95.0327V94.9562H17.0537V95.0327Z" fill="white"/>
<path d="M116.566 95.0327V95.8235V95.9H124.859V95.8235V95.0327V94.9562H116.566V95.0327Z" fill="white"/>
<path d="M83.3953 95.0327V95.8235V95.9H91.688V95.8235V95.0327V94.9562H83.3953V95.0327Z" fill="white"/>
<path d="M4.88245 91.0788H4.01491V94.9562H0.136475V95.0327V95.8235V95.9H4.01491V99.7774H4.88245V95.9H8.76089V95.8235V95.0327V94.9562H4.88245V91.0788Z" fill="white"/>
<path d="M4.88256 41.3364H4.01501V49.6268H4.88256V41.3364Z" fill="white"/>
<path d="M4.88256 24.7556H4.01501V33.046H4.88256V24.7556Z" fill="white"/>
<path d="M4.88256 57.9172H4.01501V66.2076H4.88256V57.9172Z" fill="white"/>
<path d="M4.88256 74.498H4.01501V82.7884H4.88256V74.498Z" fill="white"/>
<path d="M4.88256 8.17474H4.01501V16.4651H4.88256V8.17474Z" fill="white"/>
<path d="M166.654 95.0327V95.8235V95.9H174.947V95.8235V95.0327V94.9562H166.654V95.0327Z" fill="white"/>
<path d="M183.239 95.0327V95.8235V95.9H191.532V95.8235V95.0327V94.9562H183.239V95.0327Z" fill="white"/>
<path d="M249.581 95.0327V95.8235V95.9H257.874V95.8235V95.0327V94.9562H249.581V95.0327Z" fill="white"/>
<path d="M199.825 95.0327V95.8235V95.9H208.118V95.8235V95.0327V94.9562H199.825V95.0327Z" fill="white"/>
<path d="M216.41 95.0327V95.8235V95.9H224.703V95.8235V95.0327V94.9562H216.41V95.0327Z" fill="white"/>
<path d="M232.996 95.0327V95.8235V95.9H241.288V95.8235V95.0327V94.9562H232.996V95.0327Z" fill="white"/>
<path d="M150.081 95.0327V95.8235V95.9H158.361V95.8235V95.0327V94.9562H150.081V95.0327Z" fill="white"/>
<path d="M137.897 91.0788H137.03V94.9562H133.151V95.0327V95.8235V95.9H137.03V99.7774H137.897V95.9H141.789V95.8235V95.0327V94.9562H137.897V91.0788Z" fill="white"/>
<path d="M137.897 57.9172H137.03V66.2076H137.897V57.9172Z" fill="white"/>
<path d="M137.897 8.17474H137.03V16.4651H137.897V8.17474Z" fill="white"/>
<path d="M137.897 74.498H137.03V82.7884H137.897V74.498Z" fill="white"/>
<path d="M137.897 41.3364H137.03V49.6268H137.897V41.3364Z" fill="white"/>
<path d="M137.897 24.7556H137.03V33.046H137.897V24.7556Z" fill="white"/>
<path d="M332.84 95.0327V95.8235V95.9H341.133V95.8235V95.0327V94.9562H332.84V95.0327Z" fill="white"/>
<path d="M316.254 95.0327V95.8235V95.9H324.547V95.8235V95.0327V94.9562H316.254V95.0327Z" fill="white"/>
<path d="M366.011 95.0327V95.8235V95.9H374.303V95.8235V95.0327V94.9562H366.011V95.0327Z" fill="white"/>
<path d="M299.682 95.0327V95.8235V95.9H307.962V95.8235V95.0327V94.9562H299.682V95.0327Z" fill="white"/>
<path d="M283.096 95.0327V95.8235V95.9H291.389V95.8235V95.0327V94.9562H283.096V95.0327Z" fill="white"/>
<path d="M382.596 95.0327V95.8235V95.9H390.889V95.8235V95.0327V94.9562H382.596V95.0327Z" fill="white"/>
<path d="M349.425 95.0327V95.8235V95.9H357.718V95.8235V95.0327V94.9562H349.425V95.0327Z" fill="white"/>
<path d="M270.912 91.0788H270.045V94.9562H266.167V95.0327V95.8235V95.9H270.045V99.7774H270.912V95.9H274.804V95.8235V95.0327V94.9562H270.912V91.0788Z" fill="white"/>
<path d="M270.912 8.17474H270.045V16.4651H270.912V8.17474Z" fill="white"/>
<path d="M270.912 41.3364H270.045V49.6268H270.912V41.3364Z" fill="white"/>
<path d="M270.912 57.9172H270.045V66.2076H270.912V57.9172Z" fill="white"/>
<path d="M270.912 24.7556H270.045V33.046H270.912V24.7556Z" fill="white"/>
<path d="M270.912 74.498H270.045V82.7884H270.912V74.498Z" fill="white"/>
<path d="M482.44 95.0327V95.8235V95.9H490.733V95.8235V95.0327V94.9562H482.44V95.0327Z" fill="white"/>
<path d="M499.026 95.0327V95.8235V95.9H507.318V95.8235V95.0327V94.9562H499.026V95.0327Z" fill="white"/>
<path d="M432.697 95.0327V95.8235V95.9H440.989V95.8235V95.0327V94.9562H432.697V95.0327Z" fill="white"/>
<path d="M515.611 95.0327V95.8235V95.9H523.904V95.8235V95.0327V94.9562H515.611V95.0327Z" fill="white"/>
<path d="M449.282 95.0327V95.8235V95.9H457.575V95.8235V95.0327V94.9562H449.282V95.0327Z" fill="white"/>
<path d="M416.111 95.0327V95.8235V95.9H424.404V95.8235V95.0327V94.9562H416.111V95.0327Z" fill="white"/>
<path d="M465.867 95.0327V95.8235V95.9H474.16V95.8235V95.0327V94.9562H465.867V95.0327Z" fill="white"/>
<path d="M403.927 91.0788H403.073V94.9562H399.181V95.0327V95.8235V95.9H403.073V99.7774H403.927V95.9H407.819V95.8235V95.0327V94.9562H403.927V91.0788Z" fill="white"/>
<path d="M403.94 57.9172H403.073V66.2076H403.94V57.9172Z" fill="white"/>
<path d="M403.94 41.3364H403.073V49.6268H403.94V41.3364Z" fill="white"/>
<path d="M403.94 74.498H403.073V82.7884H403.94V74.498Z" fill="white"/>
<path d="M403.94 24.7556H403.073V33.046H403.94V24.7556Z" fill="white"/>
<path d="M403.94 8.17474H403.073V16.4651H403.94V8.17474Z" fill="white"/>
<path d="M615.468 95.0327V95.8235V95.9H623.761V95.8235V95.0327V94.9562H615.468V95.0327Z" fill="white"/>
<path d="M598.883 95.0327V95.8235V95.9H607.175V95.8235V95.0327V94.9562H598.883V95.0327Z" fill="white"/>
<path d="M582.297 95.0327V95.8235V95.9H590.59V95.8235V95.0327V94.9562H582.297V95.0327Z" fill="white"/>
<path d="M632.041 95.0327V95.8235V95.9H640.333V95.8235V95.0327V94.9562H632.041V95.0327Z" fill="white"/>
<path d="M648.626 95.0327V95.8235V95.9H656.919V95.8235V95.0327V94.9562H648.626V95.0327Z" fill="white"/>
<path d="M549.126 95.0327V95.8235V95.9H557.419V95.8235V95.0327V94.9562H549.126V95.0327Z" fill="white"/>
<path d="M565.712 95.0327V95.8235V95.9H574.004V95.8235V95.0327V94.9562H565.712V95.0327Z" fill="white"/>
<path d="M536.942 91.0788H536.087V94.9562H532.196V95.0327V95.8235V95.9H536.087V99.7774H536.942V95.9H540.833V95.8235V95.0327V94.9562H536.942V91.0788Z" fill="white"/>
<path d="M536.955 8.17474H536.088V16.4651H536.955V8.17474Z" fill="white"/>
<path d="M536.955 41.3364H536.088V49.6268H536.955V41.3364Z" fill="white"/>
<path d="M536.955 74.498H536.088V82.7884H536.955V74.498Z" fill="white"/>
<path d="M536.955 24.7556H536.088V33.046H536.955V24.7556Z" fill="white"/>
<path d="M536.955 57.9172H536.088V66.2076H536.955V57.9172Z" fill="white"/>
<path d="M715.312 95.0327V95.8235V95.9H723.605V95.8235V95.0327V94.9562H715.312V95.0327Z" fill="white"/>
<path d="M682.141 95.0327V95.8235V95.9H690.434V95.8235V95.0327V94.9562H682.141V95.0327Z" fill="white"/>
<path d="M748.483 95.0327V95.8235V95.9H756.775V95.8235V95.0327V94.9562H748.483V95.0327Z" fill="white"/>
<path d="M781.641 95.0327V95.8235V95.9H789.934V95.8235V95.0327V94.9562H781.641V95.0327Z" fill="white"/>
<path d="M698.727 95.0327V95.8235V95.9H707.019V95.8235V95.0327V94.9562H698.727V95.0327Z" fill="white"/>
<path d="M731.897 95.0327V95.8235V95.9H740.19V95.8235V95.0327V94.9562H731.897V95.0327Z" fill="white"/>
<path d="M765.068 95.0327V95.8235V95.9H773.361V95.8235V95.0327V94.9562H765.068V95.0327Z" fill="white"/>
<path d="M669.97 91.0788H669.103V94.9562H665.211V95.0327V95.8235V95.9H669.103V99.7774H669.97V95.9H673.849V95.8235V95.0327V94.9562H669.97V91.0788Z" fill="white"/>
<path d="M669.97 74.498H669.103V82.7884H669.97V74.498Z" fill="white"/>
<path d="M669.97 41.3364H669.103V49.6268H669.97V41.3364Z" fill="white"/>
<path d="M669.97 24.7556H669.103V33.046H669.97V24.7556Z" fill="white"/>
<path d="M669.97 57.9172H669.103V66.2076H669.97V57.9172Z" fill="white"/>
<path d="M669.97 8.17474H669.103V16.4651H669.97V8.17474Z" fill="white"/>
<path d="M815.156 95.0327V95.8235V95.9H823.449V95.8235V95.0327V94.9562H815.156V95.0327Z" fill="white"/>
<path d="M802.985 91.0788H802.117V94.9562H798.226V95.0327V95.8235V95.9H802.117V99.7774H802.985V95.9H806.863V95.8235V95.0327V94.9562H802.985V91.0788Z" fill="white"/>
<path d="M802.985 74.498H802.117V82.7884H802.985V74.498Z" fill="white"/>
<path d="M802.985 57.9172H802.117V66.2076H802.985V57.9172Z" fill="white"/>
<path d="M802.985 41.3364H802.117V49.6268H802.985V41.3364Z" fill="white"/>
<path d="M802.985 8.17474H802.117V16.4651H802.985V8.17474Z" fill="white"/>
<path d="M802.985 24.7556H802.117V33.046H802.985V24.7556Z" fill="white"/>
</g>
</mask>
<g mask="url(#mask0_157_854)">
<g filter="url(#filter0_f_157_854)">
<rect x="79" y="73" width="653" height="200" rx="73" fill="#FF6565"/>
</g>
</g>
</g>
<defs>
<filter id="filter0_f_157_854" x="-19" y="-25" width="849" height="396" filterUnits="userSpaceOnUse" color-interpolation-filters="sRGB">
<feFlood flood-opacity="0" result="BackgroundImageFix"/>
<feBlend mode="normal" in="SourceGraphic" in2="BackgroundImageFix" result="shape"/>
<feGaussianBlur stdDeviation="49" result="effect1_foregroundBlur_157_854"/>
</filter>
<clipPath id="clip0_157_854">
<rect width="824" height="319" fill="white"/>
</clipPath>
</defs>
</svg>
